<mxfile host="app.diagrams.net" modified="2020-12-09T20:05:01.147Z" agent="5.0 (Windows NT 10.0; Win64; x64) AppleWebKit/537.36 (KHTML, like Gecko) Chrome/87.0.4280.88 Safari/537.36" etag="gjBUHA1Y6QSrnF2y4zH4" version="14.0.0" type="github">
  <diagram id="FHTQZz5_AwO-WzWTaoRn" name="Page-1">
    <mxGraphModel dx="1422" dy="772" grid="0" gridSize="10" guides="1" tooltips="1" connect="1" arrows="1" fold="1" page="1" pageScale="1" pageWidth="850" pageHeight="1100" math="0" shadow="0">
      <root>
        <mxCell id="0" />
        <mxCell id="1" parent="0" />
        <mxCell id="M3xBPs5E_41aVL5P-zRN-19" value="" style="rounded=0;whiteSpace=wrap;html=1;fillColor=#f5f5f5;strokeColor=#666666;fontColor=#333333;" parent="1" vertex="1">
          <mxGeometry x="64" y="52.5" width="400" height="396" as="geometry" />
        </mxCell>
        <mxCell id="M3xBPs5E_41aVL5P-zRN-18" value="" style="rounded=0;whiteSpace=wrap;html=1;fillColor=#f5f5f5;strokeColor=#666666;fontColor=#333333;" parent="1" vertex="1">
          <mxGeometry x="573" y="54" width="194" height="393" as="geometry" />
        </mxCell>
        <mxCell id="M3xBPs5E_41aVL5P-zRN-1" value="Config&lt;br&gt;Service&lt;br&gt;(Parameter Store)" style="outlineConnect=0;dashed=0;verticalLabelPosition=bottom;verticalAlign=top;align=center;html=1;shape=mxgraph.aws3.ec2_compute_container;fillColor=#F58534;gradientColor=none;" parent="1" vertex="1">
          <mxGeometry x="649" y="102" width="60" height="34.5" as="geometry" />
        </mxCell>
        <mxCell id="M3xBPs5E_41aVL5P-zRN-2" value="Secrets&lt;br&gt;Service &lt;br&gt;(Secrets Manager)" style="outlineConnect=0;dashed=0;verticalLabelPosition=bottom;verticalAlign=top;align=center;html=1;shape=mxgraph.aws3.ec2_compute_container;fillColor=#F58534;gradientColor=none;" parent="1" vertex="1">
          <mxGeometry x="653" y="327" width="60" height="34.5" as="geometry" />
        </mxCell>
        <mxCell id="M3xBPs5E_41aVL5P-zRN-5" style="rounded=0;orthogonalLoop=1;jettySize=auto;html=1;" parent="1" edge="1">
          <mxGeometry relative="1" as="geometry">
            <mxPoint x="635" y="117" as="targetPoint" />
            <mxPoint x="410" y="117" as="sourcePoint" />
          </mxGeometry>
        </mxCell>
        <mxCell id="M3xBPs5E_41aVL5P-zRN-8" style="edgeStyle=none;rounded=0;orthogonalLoop=1;jettySize=auto;html=1;" parent="1" edge="1">
          <mxGeometry relative="1" as="geometry">
            <mxPoint x="370" y="330" as="targetPoint" />
            <mxPoint x="370" y="160" as="sourcePoint" />
          </mxGeometry>
        </mxCell>
        <mxCell id="M3xBPs5E_41aVL5P-zRN-21" value="Logs sent to disk" style="edgeStyle=none;rounded=0;orthogonalLoop=1;jettySize=auto;html=1;" parent="1" edge="1">
          <mxGeometry relative="1" as="geometry">
            <mxPoint x="155" y="319" as="targetPoint" />
            <mxPoint x="357" y="164" as="sourcePoint" />
          </mxGeometry>
        </mxCell>
        <mxCell id="M3xBPs5E_41aVL5P-zRN-3" value="Fraud Service" style="outlineConnect=0;dashed=0;verticalLabelPosition=bottom;verticalAlign=top;align=center;html=1;shape=mxgraph.aws3.ec2_compute_container;fillColor=#F58534;gradientColor=none;" parent="1" vertex="1">
          <mxGeometry x="340" y="100" width="60" height="34.5" as="geometry" />
        </mxCell>
        <mxCell id="M3xBPs5E_41aVL5P-zRN-6" style="rounded=0;orthogonalLoop=1;jettySize=auto;html=1;" parent="1" edge="1">
          <mxGeometry relative="1" as="geometry">
            <mxPoint x="632" y="132" as="targetPoint" />
            <mxPoint x="410" y="340" as="sourcePoint" />
          </mxGeometry>
        </mxCell>
        <mxCell id="M3xBPs5E_41aVL5P-zRN-7" style="edgeStyle=none;rounded=0;orthogonalLoop=1;jettySize=auto;html=1;" parent="1" edge="1">
          <mxGeometry relative="1" as="geometry">
            <mxPoint x="640" y="348" as="targetPoint" />
            <mxPoint x="410" y="353" as="sourcePoint" />
          </mxGeometry>
        </mxCell>
        <mxCell id="M3xBPs5E_41aVL5P-zRN-22" value="&lt;span style=&quot;color: rgb(0 , 0 , 0) ; font-family: &amp;#34;helvetica&amp;#34; ; font-size: 11px ; font-style: normal ; font-weight: 400 ; letter-spacing: normal ; text-align: center ; text-indent: 0px ; text-transform: none ; word-spacing: 0px ; background-color: rgb(255 , 255 , 255) ; display: inline ; float: none&quot;&gt;Logs sent to disk&lt;/span&gt;&lt;br&gt;" style="edgeStyle=none;rounded=0;orthogonalLoop=1;jettySize=auto;html=1;fillColor=#F5F5F5;strokeColor=#666666;" parent="1" edge="1">
          <mxGeometry relative="1" as="geometry">
            <mxPoint x="163" y="357" as="targetPoint" />
            <mxPoint x="321" y="357" as="sourcePoint" />
          </mxGeometry>
        </mxCell>
        <mxCell id="M3xBPs5E_41aVL5P-zRN-4" value="Siebel Service" style="outlineConnect=0;dashed=0;verticalLabelPosition=bottom;verticalAlign=top;align=center;html=1;shape=mxgraph.aws3.ec2_compute_container;fillColor=#F58534;gradientColor=none;" parent="1" vertex="1">
          <mxGeometry x="340" y="340" width="60" height="34.5" as="geometry" />
        </mxCell>
        <mxCell id="M3xBPs5E_41aVL5P-zRN-20" value="" style="outlineConnect=0;dashed=0;verticalLabelPosition=bottom;verticalAlign=top;align=center;html=1;shape=mxgraph.aws3.efs_share;fillColor=#E05243;gradientColor=none;" parent="1" vertex="1">
          <mxGeometry x="81" y="335" width="69" height="63" as="geometry" />
        </mxCell>
        <mxCell id="pak5MohsP2p8bBSggsK7-1" value="This services can be replaced &lt;br&gt;with similar services from other &lt;br&gt;cloud providers" style="text;html=1;align=center;verticalAlign=middle;resizable=0;points=[];autosize=1;" vertex="1" parent="1">
          <mxGeometry x="581" y="455" width="175" height="46" as="geometry" />
        </mxCell>
      </root>
    </mxGraphModel>
  </diagram>
</mxfile>
